<svg xmlns="http://www.w3.org/2000/svg" width="180" height="180" viewBox="0 0 180 180">
<g>
<path d="M 158.17 148.66 C157.53,149.46 156.95,150.24 156.42,150.95 C154.86,153.04 153.75,154.52 152.95,154.37 C150.96,153.99 150.93,143.41 150.81,106.46 C150.80,101.43 150.78,95.91 150.76,89.87 L 150.50 23.50 L 148.25 23.18 C146.23,22.89 146.00,22.30 146.00,17.43 L 146.00 12.00 L 152.00 12.00 C156.67,12.00 158.44,12.44 160.00,14.00 C161.96,15.96 162.00,17.33 162.00,79.91 L 162.00 143.82 ZM 31.75 23.18 L 29.50 23.50 L 28.50 156.35 L 18.00 144.23 L 18.00 80.11 C18.00,17.33 18.04,15.96 20.00,14.00 C21.56,12.44 23.33,12.00 28.00,12.00 L 34.00 12.00 L 34.00 17.43 C34.00,22.30 33.77,22.89 31.75,23.18 ZM 131.00 19.08 L 131.00 23.00 L 48.83 23.00 L 49.37 17.75 C49.67,14.86 49.93,12.39 49.96,12.25 C49.98,12.11 67.95,12.00 89.89,12.00 C92.99,12.00 95.85,12.00 98.50,11.99 C123.40,11.97 129.35,11.96 130.69,14.45 C131.11,15.23 131.07,16.25 131.03,17.60 C131.02,18.06 131.00,18.55 131.00,19.08 ZM 99.79 155.75 C99.51,163.21 99.41,163.51 97.00,163.69 C92.02,164.08 92.00,164.01 92.00,144.62 C92.00,131.78 92.35,126.05 93.20,125.20 C94.69,123.71 105.15,123.64 110.31,125.07 C115.20,126.43 117.72,128.98 118.55,133.44 C119.45,138.19 118.46,141.63 115.30,144.79 L 112.67 147.42 L 116.06 153.75 C119.80,160.75 119.47,163.24 114.75,163.81 C112.49,164.08 111.72,163.21 107.91,156.06 C102.10,145.16 100.19,145.09 99.79,155.75 ZM 100.00 132.00 L 100.00 142.00 L 103.75 141.98 C108.20,141.97 109.50,141.25 110.42,138.29 C111.66,134.31 109.47,132.00 104.46,132.00 Z" fill="rgb(112,129,144)"/>
<path d="M 114.13 76.43 C110.18,78.47 101.13,78.48 98.22,76.44 C94.02,73.50 93.00,69.87 93.00,57.95 C93.00,45.37 94.19,42.01 99.44,39.79 C103.72,37.99 111.27,38.29 114.49,40.40 C118.60,43.09 120.00,47.70 120.00,58.50 C120.00,69.66 118.53,74.16 114.13,76.43 ZM 69.80 76.80 C68.59,78.01 65.54,78.26 63.25,77.34 C61.50,76.63 61.46,40.94 63.20,39.20 C64.87,37.53 78.27,37.67 82.40,39.39 C84.24,40.16 86.47,41.84 87.37,43.12 C89.56,46.24 89.56,55.76 87.37,58.88 C85.27,61.88 80.15,64.00 75.03,64.00 L 71.00 64.00 L 71.00 69.80 C71.00,72.99 70.46,76.14 69.80,76.80 ZM 78.19 120.97 C76.16,121.53 73.60,121.95 72.50,121.90 C65.48,121.61 59.07,116.61 61.03,112.95 C62.64,109.93 63.89,109.74 67.59,111.92 C71.79,114.40 75.28,114.58 77.43,112.43 C79.82,110.04 77.84,107.45 70.98,103.99 C67.71,102.34 64.36,99.96 63.53,98.69 C56.46,87.89 69.29,76.92 82.53,82.45 C88.82,85.08 86.03,91.50 79.61,89.18 C75.24,87.60 72.50,87.69 71.01,89.49 C69.03,91.87 70.50,93.72 76.99,96.99 C83.90,100.48 86.99,104.55 87.00,110.17 C87.00,114.89 83.17,119.58 78.19,120.97 ZM 103.00 70.02 C105.08,71.34 108.37,71.23 109.80,69.80 C111.44,68.16 111.44,48.84 109.80,47.20 C108.37,45.77 105.08,45.66 103.00,46.98 C101.82,47.72 101.50,50.19 101.50,58.50 C101.50,66.81 101.82,69.28 103.00,70.02 ZM 71.00 46.00 L 71.00 57.00 L 74.80 57.00 C79.41,57.00 81.00,55.59 81.00,51.50 C81.00,47.41 79.41,46.00 74.80,46.00 Z" fill="rgb(237,86,120)"/>
<path d="M 17.61 0.00 L 162.39 0.00 C146.75,0.00 144.85,0.18 145.39,1.58 C145.73,2.45 146.00,5.15 146.00,7.58 L 146.00 17.43 C146.00,22.13 146.22,22.85 148.04,23.15 C147.06,23.22 145.83,23.75 145.00,24.50 C143.99,25.42 141.29,26.42 139.01,26.73 C135.76,27.16 134.25,26.82 131.98,25.14 C129.13,23.04 128.37,23.00 89.87,23.00 C54.39,23.00 50.48,23.16 48.78,24.70 C46.04,27.18 36.56,27.14 34.73,24.64 C34.12,23.80 33.04,23.21 32.08,23.13 C33.79,22.81 34.00,22.02 34.00,17.43 L 34.00 7.58 C34.00,5.15 34.27,2.45 34.61,1.58 C35.15,0.18 33.25,0.00 17.61,0.00 ZM 177.23 68.25 C178.47,73.06 179.60,77.00 179.74,77.00 C179.88,77.00 180.00,59.67 180.00,38.50 L 180.00 180.00 L 179.90 140.75 C179.83,113.64 179.50,102.74 178.84,105.50 C175.63,119.05 170.15,132.50 165.23,138.92 C164.31,140.13 163.10,141.78 162.00,143.33 L 162.00 79.91 C162.00,17.33 161.96,15.96 160.00,14.00 C158.44,12.44 156.67,12.00 152.00,12.00 C161.03,12.00 162.00,13.37 162.00,26.07 C162.00,35.66 162.15,36.35 165.05,40.58 C169.86,47.56 174.77,58.73 177.23,68.25 ZM 0.00 0.00 L 0.08 38.25 C0.12,59.29 0.34,76.05 0.56,75.50 C0.78,74.95 2.12,70.47 3.53,65.55 C6.18,56.36 12.53,42.95 16.03,39.20 C17.73,37.37 18.00,35.65 18.00,26.54 C18.00,13.31 18.90,12.00 28.00,12.00 C23.33,12.00 21.56,12.44 20.00,14.00 C18.04,15.96 18.00,17.33 18.00,80.11 L 18.00 143.65 C10.46,133.30 5.10,121.88 2.43,110.33 C1.55,106.58 0.65,103.32 0.42,103.09 C0.19,102.86 0.00,120.07 0.00,141.33 ZM 131.00 19.08 C131.00,18.55 131.02,18.06 131.03,17.60 C131.07,16.25 131.11,15.23 130.69,14.45 C129.35,11.96 123.40,11.97 98.50,11.99 C95.85,12.00 92.99,12.00 89.89,12.00 C67.95,12.00 49.98,12.11 49.96,12.25 C49.93,12.39 49.67,14.86 49.37,17.75 L 48.83 23.00 L 131.00 23.00 ZM 87.42 162.36 C86.88,163.75 85.05,164.00 75.59,164.00 C68.22,164.00 63.99,163.59 63.20,162.80 C62.36,161.96 62.00,156.44 62.00,144.37 C62.00,129.89 62.26,126.89 63.60,125.54 C66.02,123.13 85.79,123.72 87.39,126.25 C88.19,127.52 88.19,128.48 87.39,129.75 C86.53,131.12 84.62,131.56 78.59,131.79 L 70.89 132.09 L 71.19 136.29 C71.50,140.48 71.52,140.50 76.00,141.00 C80.00,141.44 80.50,141.78 80.50,144.00 C80.50,145.93 79.93,146.56 78.00,146.78 C71.16,147.55 70.87,147.78 71.19,152.28 L 71.50 156.50 L 79.20 156.79 C85.60,157.03 86.99,157.39 87.47,158.90 C87.79,159.90 87.76,161.46 87.42,162.36 ZM 107.30 114.00 C106.56,119.98 106.30,120.52 104.00,120.69 C99.08,121.07 99.00,120.81 99.00,104.47 L 99.00 89.11 L 94.85 88.81 C90.05,88.45 87.82,86.09 89.61,83.25 C90.53,81.79 92.52,81.45 101.61,81.21 C115.94,80.83 117.21,81.17 116.81,85.28 C116.52,88.25 116.19,88.53 112.51,88.82 C110.32,89.00 108.21,89.66 107.83,90.28 C107.44,90.90 107.35,95.03 107.61,99.46 C107.88,103.88 107.74,110.43 107.30,114.00 ZM 120.00 5.42 C124.68,7.26 128.78,8.82 129.12,8.88 C129.47,8.95 130.00,7.76 130.30,6.25 C130.61,4.74 131.16,2.71 131.54,1.75 C132.16,0.13 131.11,0.01 117.36,0.07 C108.13,0.11 103.26,0.47 104.50,1.00 C105.60,1.47 107.62,1.91 109.00,1.97 C110.38,2.03 115.32,3.58 120.00,5.42 ZM 49.71 6.30 C50.13,8.42 50.67,8.94 51.89,8.41 C55.00,7.05 66.55,3.07 71.50,1.65 C76.45,0.22 76.36,0.21 62.14,0.10 C48.86,0.01 47.84,0.13 48.46,1.75 C48.84,2.71 49.39,4.76 49.71,6.30 ZM 31.05 23.28 C29.54,24.11 29.45,29.98 29.00,89.94 L 29.50 23.50 ZM 148.98 23.28 L 150.50 23.50 L 150.58 45.41 C150.31,26.80 149.93,23.84 148.98,23.28 ZM 153.15 154.38 L 151.50 156.11 L 151.45 149.03 C151.75,152.72 152.22,154.23 152.95,154.37 C153.01,154.38 153.08,154.39 153.15,154.38 ZM 158.17 148.66 L 158.95 147.68 C158.47,148.31 157.94,148.98 157.40,149.65 C157.65,149.32 157.90,148.99 158.17,148.66 Z" fill="rgb(249,202,80)"/>
<path d="M 0.00 141.33 C0.00,120.07 0.19,102.86 0.42,103.09 C0.65,103.32 1.55,106.58 2.43,110.33 C5.70,124.47 12.98,138.39 23.38,150.42 L 28.50 156.35 L 29.00 89.94 C29.49,25.29 29.55,23.52 31.43,23.15 C32.51,22.95 33.97,23.61 34.73,24.64 C36.56,27.14 46.04,27.18 48.78,24.70 C50.48,23.16 54.39,23.00 89.87,23.00 C128.37,23.00 129.13,23.04 131.98,25.14 C134.25,26.82 135.76,27.16 139.01,26.73 C141.29,26.42 143.99,25.42 145.00,24.50 C146.02,23.58 147.67,22.98 148.68,23.18 C150.41,23.51 150.52,26.67 151.00,89.82 L 151.50 156.11 L 154.65 152.81 C156.38,150.99 158.86,147.92 160.15,146.00 C161.44,144.07 163.73,140.89 165.23,138.92 C170.15,132.50 175.63,119.05 178.84,105.50 C179.50,102.74 179.83,113.64 179.90,140.75 L 180.00 180.00 L 90.00 180.00 L 0.00 180.00 L 0.00 141.33 ZM 87.42 162.36 C87.76,161.46 87.79,159.90 87.47,158.90 C86.99,157.39 85.60,157.03 79.20,156.79 L 71.50 156.50 L 71.19 152.28 C70.87,147.78 71.16,147.55 78.00,146.78 C79.93,146.56 80.50,145.93 80.50,144.00 C80.50,141.78 80.00,141.44 76.00,141.00 C71.52,140.50 71.50,140.48 71.19,136.29 L 70.89 132.09 L 78.59 131.79 C84.62,131.56 86.53,131.12 87.39,129.75 C88.19,128.48 88.19,127.52 87.39,126.25 C85.79,123.72 66.02,123.13 63.60,125.54 C62.26,126.89 62.00,129.89 62.00,144.37 C62.00,156.44 62.36,161.96 63.20,162.80 C63.99,163.59 68.22,164.00 75.59,164.00 C85.05,164.00 86.88,163.75 87.42,162.36 ZM 99.79 155.75 C100.19,145.09 102.10,145.16 107.91,156.06 C111.72,163.21 112.49,164.08 114.75,163.81 C119.47,163.24 119.80,160.75 116.06,153.75 L 112.67 147.42 L 115.30 144.79 C118.46,141.63 119.45,138.19 118.55,133.44 C117.72,128.98 115.20,126.43 110.31,125.07 C105.15,123.64 94.69,123.71 93.20,125.20 C92.35,126.05 92.00,131.78 92.00,144.62 C92.00,164.01 92.02,164.08 97.00,163.69 C99.41,163.51 99.51,163.21 99.79,155.75 ZM 78.19 120.97 C83.17,119.58 87.00,114.89 87.00,110.17 C86.99,104.55 83.90,100.48 76.99,96.99 C70.50,93.72 69.03,91.87 71.01,89.49 C72.50,87.69 75.24,87.60 79.61,89.18 C86.03,91.50 88.82,85.08 82.53,82.45 C69.29,76.92 56.46,87.89 63.53,98.69 C64.36,99.96 67.71,102.34 70.98,103.99 C77.84,107.45 79.82,110.04 77.43,112.43 C75.28,114.58 71.79,114.40 67.59,111.92 C63.89,109.74 62.64,109.93 61.03,112.95 C59.07,116.61 65.48,121.61 72.50,121.90 C73.60,121.95 76.16,121.53 78.19,120.97 ZM 107.30 114.00 C107.74,110.43 107.88,103.88 107.61,99.46 C107.35,95.03 107.44,90.90 107.83,90.28 C108.21,89.66 110.32,89.00 112.51,88.82 C116.19,88.53 116.52,88.25 116.81,85.28 C117.21,81.17 115.94,80.83 101.61,81.21 C92.52,81.45 90.53,81.79 89.61,83.25 C87.82,86.09 90.05,88.45 94.85,88.81 L 99.00 89.11 L 99.00 104.47 C99.00,120.81 99.08,121.07 104.00,120.69 C106.30,120.52 106.56,119.98 107.30,114.00 ZM 69.80 76.80 C70.46,76.14 71.00,72.99 71.00,69.80 L 71.00 64.00 L 75.03 64.00 C80.15,64.00 85.27,61.88 87.37,58.88 C89.56,55.76 89.56,46.24 87.37,43.12 C86.47,41.84 84.24,40.16 82.40,39.39 C78.27,37.67 64.87,37.53 63.20,39.20 C61.46,40.94 61.50,76.63 63.25,77.34 C65.54,78.26 68.59,78.01 69.80,76.80 ZM 114.13 76.43 C118.53,74.16 120.00,69.66 120.00,58.50 C120.00,47.70 118.60,43.09 114.49,40.40 C111.27,38.29 103.72,37.99 99.44,39.79 C94.19,42.01 93.00,45.37 93.00,57.95 C93.00,69.87 94.02,73.50 98.22,76.44 C101.13,78.48 110.18,78.47 114.13,76.43 ZM 177.23 68.25 C174.77,58.73 169.86,47.56 165.05,40.58 C162.15,36.35 162.00,35.66 162.00,26.07 C162.00,13.37 161.03,12.00 152.00,12.00 L 146.00 12.00 L 146.00 7.58 C146.00,5.15 145.73,2.45 145.39,1.58 C144.85,0.18 146.75,-0.00 162.39,-0.00 L 180.00 0.00 L 180.00 38.50 C180.00,59.67 179.88,77.00 179.74,77.00 C179.60,77.00 178.47,73.06 177.23,68.25 ZM 0.08 38.25 L 0.00 0.00 L 17.61 0.00 C33.25,0.00 35.15,0.18 34.61,1.58 C34.27,2.45 34.00,5.15 34.00,7.58 L 34.00 12.00 L 28.00 12.00 C18.90,12.00 18.00,13.31 18.00,26.54 C18.00,35.65 17.73,37.37 16.03,39.20 C12.53,42.95 6.18,56.36 3.53,65.55 C2.12,70.47 0.78,74.95 0.56,75.50 C0.34,76.05 0.12,59.29 0.08,38.25 ZM 49.71 6.30 C49.39,4.76 48.84,2.71 48.46,1.75 C47.84,0.13 48.86,0.01 62.14,0.10 C76.36,0.21 76.45,0.22 71.50,1.65 C66.55,3.07 55.00,7.05 51.89,8.41 C50.67,8.94 50.13,8.42 49.71,6.30 ZM 120.00 5.42 C115.32,3.58 110.38,2.03 109.00,1.97 C107.62,1.91 105.60,1.47 104.50,1.00 C103.26,0.47 108.13,0.11 117.36,0.07 C131.11,0.01 132.16,0.13 131.54,1.75 C131.16,2.71 130.61,4.74 130.30,6.25 C130.00,7.76 129.47,8.95 129.12,8.88 C128.78,8.82 124.68,7.26 120.00,5.42 ZM 100.00 137.00 L 100.00 132.00 L 104.46 132.00 C109.47,132.00 111.66,134.31 110.42,138.29 C109.50,141.25 108.20,141.97 103.75,141.98 L 100.00 142.00 L 100.00 137.00 ZM 71.00 51.50 L 71.00 46.00 L 74.80 46.00 C79.41,46.00 81.00,47.41 81.00,51.50 C81.00,55.59 79.41,57.00 74.80,57.00 L 71.00 57.00 L 71.00 51.50 ZM 103.00 70.02 C101.82,69.28 101.50,66.81 101.50,58.50 C101.50,50.19 101.82,47.72 103.00,46.98 C105.08,45.66 108.37,45.77 109.80,47.20 C111.44,48.84 111.44,68.16 109.80,69.80 C108.37,71.23 105.08,71.34 103.00,70.02 Z" fill="rgb(251,250,248)"/>
</g>
</svg>